<svg id="Capa_1" data-name="Capa 1" xmlns="http://www.w3.org/2000/svg" xmlns:xlink="http://www.w3.org/1999/xlink" viewBox="0 0 728.16 143"><defs><style>.cls-1{fill:url(#Degradado_sin_nombre_23);}.cls-2{fill:url(#Degradado_sin_nombre_3890);}.cls-3{fill:url(#Degradado_sin_nombre_3890-2);}.cls-4{fill:url(#Degradado_sin_nombre_3890-3);}.cls-5{fill:url(#Degradado_sin_nombre_3890-4);}.cls-6{fill:url(#Degradado_sin_nombre_3890-5);}.cls-7{fill:url(#Degradado_sin_nombre_3890-6);}.cls-8{fill:url(#Degradado_sin_nombre_3890-7);}.cls-9{fill:url(#Degradado_sin_nombre_3890-8);}.cls-10{fill:url(#Degradado_sin_nombre_3890-9);}.cls-11{fill:url(#Degradado_sin_nombre_3890-10);}.cls-12{fill:url(#Degradado_sin_nombre_3890-11);}.cls-13{fill:url(#Degradado_sin_nombre_3890-12);}.cls-14{fill:url(#Degradado_sin_nombre_3890-13);}.cls-15{fill:url(#Degradado_sin_nombre_3890-14);}.cls-16{fill:url(#Degradado_sin_nombre_3890-15);}.cls-17{fill:url(#Degradado_sin_nombre_3890-16);}.cls-18{fill:url(#Degradado_sin_nombre_3890-17);}.cls-19{fill:url(#Degradado_sin_nombre_3890-18);}.cls-20{fill:url(#Degradado_sin_nombre_3890-19);}</style><linearGradient id="Degradado_sin_nombre_23" x1="510.3" y1="230.71" x2="510.3" y2="100.87" gradientUnits="userSpaceOnUse"><stop offset="0" stop-color="#a3b6ba"/><stop offset="0.75" stop-color="#e7eef0"/><stop offset="0.98" stop-color="#fff"/></linearGradient><linearGradient id="Degradado_sin_nombre_3890" x1="521.61" y1="264.13" x2="521.61" y2="335.26" gradientUnits="userSpaceOnUse"><stop offset="0" stop-color="#fbef04"/><stop offset="0.72" stop-color="#ffd102"/><stop offset="1" stop-color="#ffd102"/></linearGradient><linearGradient id="Degradado_sin_nombre_3890-2" x1="331.01" y1="137.21" x2="331.01" y2="208.34" xlink:href="#Degradado_sin_nombre_3890"/><linearGradient id="Degradado_sin_nombre_3890-3" x1="402.01" y1="139.46" x2="402.01" y2="182.87" xlink:href="#Degradado_sin_nombre_3890"/><linearGradient id="Degradado_sin_nombre_3890-4" x1="407.54" y1="125.96" x2="407.54" y2="141.75" xlink:href="#Degradado_sin_nombre_3890"/><linearGradient id="Degradado_sin_nombre_3890-5" x1="576.04" y1="264.13" x2="576.04" y2="335.26" xlink:href="#Degradado_sin_nombre_3890"/><linearGradient id="Degradado_sin_nombre_3890-6" x1="140.62" y1="137.21" x2="140.62" y2="208.34" xlink:href="#Degradado_sin_nombre_3890"/><linearGradient id="Degradado_sin_nombre_3890-7" x1="449.95" y1="264.13" x2="449.95" y2="335.26" xlink:href="#Degradado_sin_nombre_3890"/><linearGradient id="Degradado_sin_nombre_3890-8" x1="461.98" y1="125.96" x2="461.98" y2="141.75" xlink:href="#Degradado_sin_nombre_3890"/><linearGradient id="Degradado_sin_nombre_3890-9" x1="283.38" y1="137.21" x2="283.38" y2="208.34" xlink:href="#Degradado_sin_nombre_3890"/><linearGradient id="Degradado_sin_nombre_3890-10" x1="456.45" y1="139.46" x2="456.45" y2="182.87" xlink:href="#Degradado_sin_nombre_3890"/><linearGradient id="Degradado_sin_nombre_3890-11" x1="779.77" y1="264.13" x2="779.77" y2="335.26" xlink:href="#Degradado_sin_nombre_3890"/><linearGradient id="Degradado_sin_nombre_3890-12" x1="664.54" y1="125.96" x2="664.54" y2="141.75" xlink:href="#Degradado_sin_nombre_3890"/><linearGradient id="Degradado_sin_nombre_3890-13" x1="659.01" y1="139.46" x2="659.01" y2="182.87" xlink:href="#Degradado_sin_nombre_3890"/><linearGradient id="Degradado_sin_nombre_3890-14" x1="573.74" y1="137.21" x2="573.74" y2="208.34" xlink:href="#Degradado_sin_nombre_3890"/><linearGradient id="Degradado_sin_nombre_3890-15" x1="605.23" y1="137.21" x2="605.23" y2="208.34" xlink:href="#Degradado_sin_nombre_3890"/><linearGradient id="Degradado_sin_nombre_3890-16" x1="574.04" y1="141.71" x2="574.04" y2="157.5" xlink:href="#Degradado_sin_nombre_3890"/><linearGradient id="Degradado_sin_nombre_3890-17" x1="631.65" y1="264.13" x2="631.65" y2="335.26" xlink:href="#Degradado_sin_nombre_3890"/><linearGradient id="Degradado_sin_nombre_3890-18" x1="658.89" y1="264.13" x2="658.89" y2="335.26" xlink:href="#Degradado_sin_nombre_3890"/><linearGradient id="Degradado_sin_nombre_3890-19" x1="546.31" y1="137.21" x2="546.31" y2="208.34" xlink:href="#Degradado_sin_nombre_3890"/></defs><title>logo</title><path class="cls-1" d="M146.29,227.38l28.7-61.3H285.56L275,188.37H195.67l-7.81,16.72H267.2l-10.34,22.29Zm147.08-78.16H182.8l10.55-22.29H303.92Zm55.92,78.16-13.5-62.33-29.12,62.33H275.44l47.05-100.45h37.56l14.14,62.76,72.59-62.76h37.57L437.29,227.38h-31l29.12-62.33-72,62.33Zm265.47-78.16H569.18l-36.51,78.16H501.44L538,149.22H492.37l10.55-22.29H625.31Zm48.32,78.16,6.12-76.11-65.41,76.11h-31L659.5,126.93h42l-7.18,100.45Zm-45.15,0,10.34-22.29h31L649,227.38Zm134.63-35q-6.12,12.75,8.44,12.76h45.37l16.25-34.47h31.23l-26.59,56.76H745.38a48.93,48.93,0,0,1-15.3-2.13,20.45,20.45,0,0,1-9.81-6.31,16.86,16.86,0,0,1-3.58-10.33q-.23-6.17,3.58-14.08l16.25-34.76a48.86,48.86,0,0,1,9.5-14,59.73,59.73,0,0,1,13.19-10.27A63.15,63.15,0,0,1,775,129.13a69.42,69.42,0,0,1,17.41-2.2h81.88l-10.55,22.29H787q-13.08,0-19.2,10.41Z" transform="translate(-146.16 -126.93)"/><path class="cls-2" d="M536.77,256.3l.38-.86q.9-2.77-.57-4.27t-4.87-1.49h-16.5l-2.13,4.49h15.44a3.7,3.7,0,0,1,1.83.4q.67.41.21,1.32a2.53,2.53,0,0,1-1.45,1.28,5.81,5.81,0,0,1-2.17.4H511.51l-5.79,12.36H512l3.65-7.87h10.21a13.89,13.89,0,0,0,6.3-1.47A11,11,0,0,0,536.77,256.3Z" transform="translate(-146.16 -126.93)"/><polygon class="cls-3" points="338.09 130.65 326.01 130.65 329.71 122.75 323.42 122.75 313.93 143 320.23 143 323.88 135.14 335.96 135.14 332.31 143 338.6 143 348.08 122.75 341.79 122.75 338.09 130.65"/><polygon class="cls-4" points="413.92 135.14 416.04 130.65 393.76 130.65 387.97 143 410.26 143 412.34 138.51 396.35 138.51 397.93 135.14 413.92 135.14"/><polygon class="cls-5" points="419.75 122.75 397.46 122.75 395.33 127.25 417.62 127.25 419.75 122.75"/><path class="cls-6" d="M591.21,256.3l.38-.86q.88-2.77-.58-4.27c-1-1-2.6-1.49-4.87-1.49h-16.5l-2.12,4.49H583a3.65,3.65,0,0,1,1.83.4c.46.27.53.71.22,1.32a2.56,2.56,0,0,1-1.45,1.28,5.81,5.81,0,0,1-2.17.4H565.94l-5.78,12.36h6.29l3.66-7.87h1.7l5.45,7.87h7.65l-5.23-7.87a15.59,15.59,0,0,0,6.91-1.44A10.71,10.71,0,0,0,591.21,256.3Z" transform="translate(-146.16 -126.93)"/><polygon class="cls-7" points="274.94 122.75 271.24 130.65 259.16 130.65 262.86 122.75 258.41 122.75 1.64 122.75 0 123.02 0 127.25 254.46 127.25 247.08 143 253.37 143 257.03 135.14 269.11 135.14 265.45 143 271.75 143 281.23 122.75 274.94 122.75"/><path class="cls-8" d="M455.41,258.49l-2,4.37a4.73,4.73,0,0,1-1.66,1.88,4.5,4.5,0,0,1-2.51.69H443c-1.95,0-2.52-.85-1.7-2.57l3.06-6.59a4.18,4.18,0,0,1,3.87-2.1h15.49l2.12-4.49h-16.5a14.3,14.3,0,0,0-3.51.44,13,13,0,0,0-3.19,1.29,12.05,12.05,0,0,0-2.66,2.07,10,10,0,0,0-1.91,2.82l-3.28,7a6.13,6.13,0,0,0-.72,2.83,3.47,3.47,0,0,0,.72,2.09,4.23,4.23,0,0,0,2,1.27,10.06,10.06,0,0,0,3.09.43h8.33a14.79,14.79,0,0,0,3.51-.43,12.58,12.58,0,0,0,3.19-1.27,11.58,11.58,0,0,0,2.64-2.09,11.16,11.16,0,0,0,1.93-2.83l2.26-4.82Z" transform="translate(-146.16 -126.93)"/><polygon class="cls-9" points="474.18 122.75 451.89 122.75 449.77 127.25 472.06 127.25 474.18 122.75"/><polygon class="cls-10" points="284.97 122.75 275.49 143 281.78 143 291.27 122.75 284.97 122.75"/><polygon class="cls-11" points="442.41 143 448.7 143 452.36 135.14 468.35 135.14 470.48 130.65 448.19 130.65 442.41 143"/><path class="cls-12" d="M784.41,262.86a4.26,4.26,0,0,1-4.17,2.57H774c-1.95,0-2.52-.85-1.7-2.57l2.85-6.12a4.15,4.15,0,0,1,4.13-2.57h6.21c1.92,0,2.51.86,1.74,2.57l-.38.77h6.29l.6-1.21a6.76,6.76,0,0,0,.7-2.82,3.27,3.27,0,0,0-.7-2.07,4.33,4.33,0,0,0-2-1.29,9.69,9.69,0,0,0-3.08-.44h-8.34a14.3,14.3,0,0,0-3.51.44,13,13,0,0,0-3.19,1.29,12.05,12.05,0,0,0-2.66,2.07,10,10,0,0,0-1.91,2.82l-3.28,7c-1,2.14-1,3.78,0,4.92s2.68,1.7,5.09,1.7h8.33a14.5,14.5,0,0,0,3.49-.43,13,13,0,0,0,3.19-1.27,11.48,11.48,0,0,0,2.66-2.09,11.16,11.16,0,0,0,1.93-2.83l.56-1.22h-6.3Z" transform="translate(-146.16 -126.93)"/><polygon class="cls-13" points="654.46 122.75 652.33 127.25 674.62 127.25 676.74 122.75 654.46 122.75"/><polygon class="cls-14" points="644.97 143 667.26 143 669.34 138.51 653.35 138.51 654.92 135.14 670.92 135.14 673.04 130.65 650.76 130.65 644.97 143"/><polygon class="cls-15" points="560.77 143 567.02 143 580.2 127.66 578.97 143 585.26 143 586.71 122.75 578.25 122.75 560.77 143"/><polygon class="cls-16" points="616.01 122.75 610.1 135.32 604.02 122.75 597.64 122.75 588.15 143 594.45 143 600.32 130.44 606.49 143 612.82 143 622.31 122.75 616.01 122.75"/><polygon class="cls-17" points="569.87 143 576.12 143 578.21 138.51 571.95 138.51 569.87 143"/><path class="cls-18" d="M646.34,253.48a3.22,3.22,0,0,0-.7-2.07,4.23,4.23,0,0,0-2-1.29,9.69,9.69,0,0,0-3.08-.44h-8.34a14.16,14.16,0,0,0-3.5.44,12.85,12.85,0,0,0-3.19,1.29,11.83,11.83,0,0,0-2.66,2.07A10,10,0,0,0,621,256.3l-3.27,7q-1.49,3.21,0,4.92t5.08,1.7h8.34a14.42,14.42,0,0,0,3.48-.43,12.88,12.88,0,0,0,3.19-1.27,11.25,11.25,0,0,0,4.6-4.92l3.27-7A6.61,6.61,0,0,0,646.34,253.48Zm-7.21,3.26-2.85,6.12a4.26,4.26,0,0,1-4.16,2.57h-6.21c-2,0-2.53-.85-1.7-2.57l2.85-6.12a4.14,4.14,0,0,1,4.12-2.57h6.21Q640.29,254.17,639.13,256.74Z" transform="translate(-146.16 -126.93)"/><path class="cls-19" d="M674.05,256.3l.38-.86q.9-2.77-.57-4.27T669,249.68h-16.5l-2.13,4.49H665.8a3.68,3.68,0,0,1,1.83.4q.68.41.21,1.32a2.51,2.51,0,0,1-1.44,1.28,5.89,5.89,0,0,1-2.17.4H648.79L643,269.93h6.3l3.66-7.87h1.7l5.44,7.87h7.66l-5.23-7.87a15.62,15.62,0,0,0,6.91-1.44A10.68,10.68,0,0,0,674.05,256.3Z" transform="translate(-146.16 -126.93)"/><polygon class="cls-20" points="559.79 122.75 545.16 135.41 542.31 122.75 534.74 122.75 525.26 143 531.55 143 537.42 130.44 540.14 143 542.99 143 557.5 130.44 551.63 143 557.88 143 567.36 122.75 559.79 122.75"/></svg>